<svg width="121" height="25" viewBox="0 0 121 25" fill="none" xmlns="http://www.w3.org/2000/svg">
<path d="M1.34304 18.2998V6.66344H3.45099V16.5328H8.57599V18.2998H1.34304ZM10.3146 18.2998V9.57253H12.3714V18.2998H10.3146ZM11.3487 8.3339C11.023 8.3339 10.7427 8.22594 10.5078 8.01003C10.273 7.79033 10.1555 7.52708 10.1555 7.22026C10.1555 6.90965 10.273 6.6464 10.5078 6.43049C10.7427 6.21079 11.023 6.10094 11.3487 6.10094C11.6783 6.10094 11.9586 6.21079 12.1896 6.43049C12.4245 6.6464 12.5419 6.90965 12.5419 7.22026C12.5419 7.52708 12.4245 7.79033 12.1896 8.01003C11.9586 8.22594 11.6783 8.3339 11.3487 8.3339ZM16.5433 13.1862V18.2998H14.4865V9.57253H16.4524V11.0555H16.5547C16.7554 10.5668 17.0755 10.1786 17.5149 9.89071C17.9581 9.60284 18.5054 9.4589 19.157 9.4589C19.7592 9.4589 20.2839 9.58768 20.7308 9.84526C21.1816 10.1028 21.5301 10.4759 21.7763 10.9646C22.0263 11.4532 22.1494 12.046 22.1456 12.743V18.2998H20.0888V13.0612C20.0888 12.4778 19.9373 12.0214 19.6342 11.6918C19.335 11.3623 18.9202 11.1975 18.3899 11.1975C18.0301 11.1975 17.71 11.2771 17.4297 11.4362C17.1532 11.5915 16.9354 11.8169 16.7763 12.1123C16.621 12.4078 16.5433 12.7657 16.5433 13.1862ZM26.1115 15.5612L26.1058 13.0782H26.4354L29.5717 9.57253H31.9751L28.1172 13.868H27.6911L26.1115 15.5612ZM24.2365 18.2998V6.66344H26.2933V18.2998H24.2365ZM29.7138 18.2998L26.8729 14.3282L28.2592 12.8794L32.174 18.2998H29.7138ZM36.8501 18.4703C35.9751 18.4703 35.2195 18.2884 34.5831 17.9248C33.9505 17.5574 33.4638 17.0384 33.1229 16.368C32.782 15.6937 32.6115 14.9002 32.6115 13.9873C32.6115 13.0896 32.782 12.3017 33.1229 11.6237C33.4676 10.9418 33.9486 10.4115 34.5661 10.0328C35.1835 9.65018 35.9089 9.4589 36.7422 9.4589C37.2801 9.4589 37.7876 9.54602 38.2649 9.72026C38.746 9.89071 39.1702 10.1559 39.5376 10.5157C39.9089 10.8756 40.2005 11.3339 40.4126 11.8907C40.6248 12.4437 40.7308 13.1028 40.7308 13.868V14.4987H33.5774V13.1123H38.7592C38.7554 12.7184 38.6702 12.368 38.5036 12.0612C38.3369 11.7506 38.1039 11.5062 37.8047 11.3282C37.5092 11.1502 37.1645 11.0612 36.7706 11.0612C36.3501 11.0612 35.9808 11.1634 35.6626 11.368C35.3445 11.5687 35.0964 11.8339 34.9183 12.1634C34.7441 12.4892 34.6551 12.8472 34.6513 13.2373V14.4475C34.6513 14.9551 34.7441 15.3907 34.9297 15.7544C35.1153 16.1142 35.3748 16.3907 35.7081 16.5839C36.0414 16.7733 36.4316 16.868 36.8786 16.868C37.1778 16.868 37.4486 16.8263 37.6911 16.743C37.9335 16.6559 38.1437 16.529 38.3217 16.3623C38.4998 16.1956 38.6342 15.9892 38.7251 15.743L40.6456 15.9589C40.5244 16.4665 40.2933 16.9097 39.9524 17.2884C39.6153 17.6634 39.1835 17.9551 38.657 18.1634C38.1304 18.368 37.5282 18.4703 36.8501 18.4703ZM44.5277 6.66344V18.2998H42.4709V6.66344H44.5277ZM47.9212 21.5725C47.6409 21.5725 47.3814 21.5498 47.1428 21.5044C46.9079 21.4627 46.7204 21.4134 46.5803 21.3566L47.0575 19.7544C47.3568 19.8415 47.6238 19.8831 47.8587 19.8794C48.0935 19.8756 48.3 19.8017 48.478 19.6578C48.6598 19.5176 48.8132 19.2828 48.9382 18.9532L49.1143 18.4816L45.9496 9.57253H48.1314L50.1428 16.1634H50.2337L52.2507 9.57253H54.4382L50.9439 19.3566C50.781 19.8187 50.5651 20.2146 50.2962 20.5441C50.0272 20.8775 49.6977 21.1312 49.3075 21.3055C48.9212 21.4835 48.459 21.5725 47.9212 21.5725Z" fill="white"/>
<path d="M67 13.2998C67.4295 13.8739 67.9774 14.349 68.6066 14.6927C69.2357 15.0365 69.9315 15.2409 70.6467 15.2921C71.3618 15.3433 72.0796 15.2401 72.7513 14.9896C73.4231 14.739 74.0331 14.3468 74.54 13.8398L77.54 10.8398C78.4508 9.89676 78.9548 8.63375 78.9434 7.32276C78.932 6.01178 78.4061 4.75772 77.4791 3.83068C76.5521 2.90364 75.298 2.37779 73.987 2.3664C72.676 2.35501 71.413 2.85898 70.47 3.76977L68.75 5.47977" stroke="white" stroke-width="2" stroke-linecap="round" stroke-linejoin="round"/>
<path d="M71 11.3C70.5705 10.7259 70.0226 10.2508 69.3934 9.90709C68.7642 9.56333 68.0684 9.35891 67.3533 9.3077C66.6382 9.25648 65.9204 9.35966 65.2486 9.61025C64.5769 9.86083 63.9668 10.253 63.46 10.76L60.46 13.76C59.5492 14.703 59.0452 15.9661 59.0566 17.277C59.068 18.588 59.5938 19.8421 60.5209 20.7691C61.4479 21.6962 62.702 22.222 64.0129 22.2334C65.3239 22.2448 66.5869 21.7408 67.53 20.83L69.24 19.12" stroke="white" stroke-width="2" stroke-linecap="round" stroke-linejoin="round"/>
<path d="M92.1619 10.3793C92.0672 10.0725 91.9366 9.79791 91.7699 9.55549C91.607 9.30927 91.41 9.09905 91.179 8.9248C90.9517 8.75056 90.6903 8.61988 90.3949 8.53276C90.0994 8.44185 89.7775 8.3964 89.429 8.3964C88.804 8.3964 88.2472 8.55359 87.7585 8.86799C87.2699 9.18238 86.8854 9.6445 86.6051 10.2543C86.3286 10.8604 86.1903 11.599 86.1903 12.4703C86.1903 13.349 86.3286 14.0934 86.6051 14.7032C86.8816 15.3131 87.2661 15.7771 87.7585 16.0953C88.2509 16.4097 88.8229 16.5669 89.4744 16.5669C90.0653 16.5669 90.5767 16.4532 91.0085 16.2259C91.4441 15.9987 91.7794 15.6767 92.0142 15.26C92.2491 14.8396 92.3665 14.3472 92.3665 13.7828L92.8438 13.8566H89.6847V12.2089H94.4062V13.6066C94.4062 14.6028 94.1941 15.4646 93.7699 16.1919C93.3456 16.9191 92.7623 17.4797 92.0199 17.8737C91.2775 18.2638 90.4252 18.4589 89.4631 18.4589C88.3911 18.4589 87.4498 18.2184 86.6392 17.7373C85.8324 17.2525 85.2017 16.565 84.7472 15.6748C84.2964 14.7809 84.071 13.7203 84.071 12.493C84.071 11.5536 84.2036 10.7146 84.4688 9.97594C84.7377 9.2373 85.1127 8.61041 85.5938 8.09526C86.0748 7.57632 86.6392 7.18238 87.2869 6.91344C87.9347 6.64071 88.6392 6.50435 89.4006 6.50435C90.0445 6.50435 90.6449 6.59905 91.2017 6.78844C91.7585 6.97405 92.2528 7.2392 92.6847 7.5839C93.1203 7.92859 93.4782 8.33768 93.7585 8.81117C94.0388 9.28465 94.2225 9.80738 94.3097 10.3793H92.1619ZM96.9006 18.2998V9.57253H98.9574V18.2998H96.9006ZM97.9347 8.3339C97.6089 8.3339 97.3286 8.22594 97.0938 8.01003C96.8589 7.79033 96.7415 7.52708 96.7415 7.22026C96.7415 6.90965 96.8589 6.6464 97.0938 6.43049C97.3286 6.21079 97.6089 6.10094 97.9347 6.10094C98.2642 6.10094 98.5445 6.21079 98.7756 6.43049C99.0104 6.6464 99.1278 6.90965 99.1278 7.22026C99.1278 7.52708 99.0104 7.79033 98.7756 8.01003C98.5445 8.22594 98.2642 8.3339 97.9347 8.3339ZM105.493 9.57253V11.1634H100.334V9.57253H105.493ZM101.624 18.2998V8.74867C101.624 8.16155 101.745 7.67291 101.987 7.28276C102.233 6.89261 102.563 6.60094 102.976 6.40776C103.389 6.21458 103.847 6.11799 104.351 6.11799C104.707 6.11799 105.023 6.1464 105.3 6.20321C105.576 6.26003 105.781 6.31117 105.913 6.35662L105.504 7.94753C105.417 7.92102 105.307 7.8945 105.175 7.86799C105.042 7.83768 104.894 7.82253 104.732 7.82253C104.349 7.82253 104.078 7.91533 103.919 8.10094C103.764 8.28276 103.686 8.54412 103.686 8.88503V18.2998H101.624ZM111.462 9.57253V11.1634H106.445V9.57253H111.462ZM107.683 7.48162H109.74V15.6748C109.74 15.9513 109.782 16.1634 109.865 16.3112C109.952 16.4551 110.066 16.5536 110.206 16.6066C110.346 16.6597 110.501 16.6862 110.672 16.6862C110.801 16.6862 110.918 16.6767 111.024 16.6578C111.134 16.6388 111.217 16.6218 111.274 16.6066L111.621 18.2146C111.511 18.2525 111.354 18.2941 111.149 18.3396C110.948 18.385 110.702 18.4115 110.411 18.4191C109.895 18.4343 109.431 18.3566 109.018 18.1862C108.606 18.0119 108.278 17.743 108.036 17.3794C107.797 17.0157 107.679 16.5612 107.683 16.0157V7.48162ZM119.955 11.8794L118.08 12.0839C118.027 11.8945 117.934 11.7165 117.801 11.5498C117.672 11.3831 117.498 11.2487 117.278 11.1464C117.059 11.0441 116.79 10.993 116.472 10.993C116.044 10.993 115.684 11.0858 115.392 11.2714C115.104 11.457 114.962 11.6975 114.966 11.993C114.962 12.2468 115.055 12.4532 115.244 12.6123C115.438 12.7714 115.756 12.9021 116.199 13.0044L117.688 13.3225C118.513 13.5006 119.127 13.7828 119.528 14.1691C119.934 14.5555 120.138 15.0612 120.142 15.6862C120.138 16.2354 119.977 16.7203 119.659 17.1407C119.345 17.5574 118.907 17.8831 118.347 18.118C117.786 18.3528 117.142 18.4703 116.415 18.4703C115.347 18.4703 114.487 18.2468 113.835 17.7998C113.184 17.349 112.795 16.7222 112.67 15.9191L114.676 15.7259C114.767 16.1199 114.96 16.4172 115.256 16.618C115.551 16.8187 115.936 16.9191 116.409 16.9191C116.898 16.9191 117.29 16.8187 117.585 16.618C117.884 16.4172 118.034 16.1691 118.034 15.8737C118.034 15.6237 117.938 15.4172 117.744 15.2543C117.555 15.0915 117.259 14.9665 116.858 14.8793L115.369 14.5668C114.532 14.3926 113.913 14.099 113.511 13.6862C113.11 13.2695 112.911 12.743 112.915 12.1066C112.911 11.5687 113.057 11.1028 113.352 10.7089C113.652 10.3112 114.066 10.0044 114.597 9.78844C115.131 9.56874 115.746 9.4589 116.443 9.4589C117.466 9.4589 118.271 9.6767 118.858 10.1123C119.449 10.5479 119.814 11.1369 119.955 11.8794Z" fill="white"/>
</svg>
