<svg width="28" height="27" viewBox="0 0 28 27" fill="none" xmlns="http://www.w3.org/2000/svg">
<path d="M1.45117 13.5C1.45117 6.3203 7.27147 0.5 14.4512 0.5C21.6309 0.5 27.4512 6.3203 27.4512 13.5C27.4512 20.6797 21.6309 26.5 14.4512 26.5C7.27147 26.5 1.45117 20.6797 1.45117 13.5Z" stroke="#F5F1F9"/>
<path d="M20.7758 13.5C20.7758 13.7736 20.6864 13.9979 20.5077 14.1729C20.3303 14.3493 20.103 14.4375 19.8258 14.4375H15.5508V18.6562C15.5508 18.9299 15.4614 19.1542 15.2827 19.3292C15.1053 19.5056 14.878 19.5938 14.6008 19.5938C14.3235 19.5938 14.0962 19.5056 13.9189 19.3292C13.7402 19.1542 13.6508 18.9299 13.6508 18.6562V14.4375H9.37578C9.09852 14.4375 8.87123 14.3493 8.69389 14.1729C8.51515 13.9979 8.42578 13.7736 8.42578 13.5C8.42578 13.2264 8.51515 13.0021 8.69389 12.8271C8.87123 12.6507 9.09852 12.5625 9.37578 12.5625H13.6508V8.34375C13.6508 8.07014 13.7402 7.84583 13.9189 7.67083C14.0962 7.49444 14.3235 7.40625 14.6008 7.40625C14.878 7.40625 15.1053 7.49444 15.2827 7.67083C15.4614 7.84583 15.5508 8.07014 15.5508 8.34375V12.5625H19.8258C20.103 12.5625 20.3303 12.6507 20.5077 12.8271C20.6864 13.0021 20.7758 13.2264 20.7758 13.5Z" fill="#1C1C1C"/>
</svg>
