<svg width="28" height="27" viewBox="0 0 28 27" fill="none" xmlns="http://www.w3.org/2000/svg">
<path d="M0.669922 13.5C0.669922 6.3203 6.49022 0.5 13.6699 0.5C20.8496 0.5 26.6699 6.3203 26.6699 13.5C26.6699 20.6797 20.8496 26.5 13.6699 26.5C6.49022 26.5 0.669922 20.6797 0.669922 13.5Z" stroke="#F5F1F9"/>
<path d="M19.0445 14.4375H8.59453C8.31727 14.4375 8.08998 14.3493 7.91264 14.1729C7.7339 13.9979 7.64453 13.7736 7.64453 13.5C7.64453 13.2264 7.7339 13.0021 7.91264 12.8271C8.08998 12.6507 8.31727 12.5625 8.59453 12.5625H19.0445C19.3218 12.5625 19.5491 12.6507 19.7264 12.8271C19.9052 13.0021 19.9945 13.2264 19.9945 13.5C19.9945 13.7736 19.9052 13.9979 19.7264 14.1729C19.5491 14.3493 19.3218 14.4375 19.0445 14.4375Z" fill="#1C1C1C"/>
</svg>
