<svg width="16" height="16" viewBox="0 0 16 16" fill="none" xmlns="http://www.w3.org/2000/svg">
<path d="M12.6667 7.33268H8.66666V3.33268C8.66666 3.15587 8.59642 2.9863 8.47139 2.86128C8.34637 2.73625 8.1768 2.66602 7.99999 2.66602C7.82318 2.66602 7.65361 2.73625 7.52858 2.86128C7.40356 2.9863 7.33332 3.15587 7.33332 3.33268V7.33268H3.33332C3.15651 7.33268 2.98694 7.40292 2.86192 7.52794C2.73689 7.65297 2.66666 7.82254 2.66666 7.99935C2.66666 8.17616 2.73689 8.34573 2.86192 8.47075C2.98694 8.59578 3.15651 8.66602 3.33332 8.66602H7.33332V12.666C7.33332 12.8428 7.40356 13.0124 7.52858 13.1374C7.65361 13.2624 7.82318 13.3327 7.99999 13.3327C8.1768 13.3327 8.34637 13.2624 8.47139 13.1374C8.59642 13.0124 8.66666 12.8428 8.66666 12.666V8.66602H12.6667C12.8435 8.66602 13.013 8.59578 13.1381 8.47075C13.2631 8.34573 13.3333 8.17616 13.3333 7.99935C13.3333 7.82254 13.2631 7.65297 13.1381 7.52794C13.013 7.40292 12.8435 7.33268 12.6667 7.33268Z" fill="black"/>
</svg>
