<svg width="29" height="33" viewBox="0 0 29 33" fill="none" xmlns="http://www.w3.org/2000/svg">
<path d="M26.5 2.96875H2.5C1.9163 2.96875 1.43778 3.1569 1.06444 3.53319C0.688148 3.94801 0.5 4.42653 0.5 4.96875V28.9688C0.5 29.511 0.688148 29.9895 1.06444 30.4043C1.43778 30.7806 1.9163 30.9688 2.5 30.9688H26.5C27.0837 30.9688 27.5622 30.7806 27.9356 30.4043C28.3119 29.9895 28.5 29.511 28.5 28.9688V4.96875C28.5 4.42653 28.3119 3.94801 27.9356 3.53319C27.5622 3.1569 27.0837 2.96875 26.5 2.96875ZM9.00222 26.9688H8.93556H4.81111V13.5954H9.00222V26.9688ZM6.87333 11.7821C6.20667 11.7821 5.64519 11.5525 5.18889 11.0932C4.72963 10.6339 4.5 10.071 4.5 9.40431C4.5 8.69616 4.72963 8.11394 5.18889 7.65764C5.64519 7.19838 6.20667 6.96875 6.87333 6.96875C7.58148 6.96875 8.14444 7.19838 8.56222 7.65764C9.02148 8.11394 9.27185 8.69616 9.31333 9.40431C9.27185 10.071 9.02148 10.6339 8.56222 11.0932C8.14444 11.5525 7.58148 11.7821 6.87333 11.7821ZM24.5 26.9688H20.3756V20.471C20.417 19.6354 20.3133 18.8428 20.0644 18.0932C19.8541 17.385 19.2289 16.9895 18.1889 16.9065C17.1459 16.948 16.4585 17.3021 16.1267 17.9688C15.8333 18.6354 15.7074 19.4265 15.7489 20.3421V26.9688H11.5622V13.5954H15.5622V15.4043H15.6244C15.8763 14.865 16.3356 14.3865 17.0022 13.9688C17.6689 13.5095 18.5222 13.2799 19.5622 13.2799C21.6037 13.3213 22.9578 13.9258 23.6244 15.0932C24.2911 16.3021 24.583 17.8236 24.5 19.6576V26.9688Z" fill="white"/>
</svg>
