<svg width="29" height="33" viewBox="0 0 29 33" fill="none" xmlns="http://www.w3.org/2000/svg">
<path d="M14.5 9.78208C12.4585 9.82357 10.7711 10.5317 9.43778 11.9065C8.06296 13.2399 7.35482 14.9273 7.31333 16.9688C7.35482 19.0102 8.06296 20.6976 9.43778 22.031C10.7711 23.4058 12.4585 24.1139 14.5 24.1554C16.5415 24.1139 18.2289 23.4058 19.5622 22.031C20.937 20.6976 21.6452 19.0102 21.6867 16.9688C21.6452 14.9273 20.937 13.2399 19.5622 11.9065C18.2289 10.5317 16.5415 9.82357 14.5 9.78208ZM14.5 21.6576C13.1667 21.6162 12.063 21.1569 11.1889 20.2799C10.3119 19.4058 9.85259 18.3021 9.81111 16.9688C9.85259 15.6354 10.3119 14.5317 11.1889 13.6576C12.063 12.7806 13.1667 12.3213 14.5 12.2799C15.8333 12.3213 16.937 12.7806 17.8111 13.6576C18.6881 14.5317 19.1474 15.6354 19.1889 16.9688C19.1474 18.3021 18.6881 19.4058 17.8111 20.2799C16.937 21.1569 15.8333 21.6162 14.5 21.6576ZM23.6867 9.47097C23.5622 10.511 23.0007 11.0725 22.0022 11.1554C20.9593 11.0725 20.3963 10.511 20.3133 9.47097C20.3133 9.01171 20.4793 8.61468 20.8111 8.27986C21.1044 7.98949 21.5015 7.84431 22.0022 7.84431C22.4585 7.84431 22.8541 7.98949 23.1889 8.27986C23.4793 8.61468 23.6452 9.01171 23.6867 9.47097ZM28.4378 11.1554V11.2176C28.4378 8.92727 27.6674 6.96875 26.1267 5.34208C24.5 3.80134 22.5622 3.03097 20.3133 3.03097C19.4807 2.98949 18.2926 2.96875 16.7489 2.96875C15.2496 2.96875 13.7504 2.96875 12.2511 2.96875C10.7074 2.96875 9.54 2.98949 8.74889 3.03097C6.5 3.03097 4.54148 3.80134 2.87333 5.34208C1.33259 6.96875 0.582963 8.90653 0.624444 11.1554C0.541481 11.988 0.5 13.1762 0.5 14.7199C0.5 16.2191 0.5 17.7184 0.5 19.2176C0.5 20.7199 0.541481 21.8873 0.624444 22.7199C0.582963 25.0102 1.33259 26.9688 2.87333 28.5954C4.5 30.1362 6.45852 30.8858 8.74889 30.8443C9.54 30.8858 10.7074 30.9273 12.2511 30.9688C13.7504 30.9688 15.2496 30.9688 16.7489 30.9688C18.2926 30.9273 19.4807 30.8858 20.3133 30.8443C22.5622 30.8858 24.5 30.1362 26.1267 28.5954C27.6674 26.9688 28.4378 25.0102 28.4378 22.7199C28.4793 21.8873 28.5 20.7199 28.5 19.2176C28.5 17.7184 28.5 16.2191 28.5 14.7199C28.5 13.1762 28.4793 11.988 28.4378 11.1554ZM25.4378 25.2176C24.8956 26.468 23.9993 27.3643 22.7489 27.9065C21.9163 28.1969 20.7919 28.3628 19.3756 28.4043C17.9593 28.4487 16.6674 28.471 15.5 28.471C15.1237 28.471 14.7904 28.471 14.5 28.471C14.2096 28.471 13.8763 28.471 13.5 28.471C12.3326 28.471 11.0407 28.4487 9.62444 28.4043C8.24963 28.3628 7.12519 28.1969 6.25111 27.9065C5.00074 27.3643 4.10444 26.468 3.56222 25.2176C3.27185 24.3436 3.10593 23.2191 3.06444 21.8443C3.02296 20.428 3.00222 19.1362 3.00222 17.9688C3.00222 17.5925 3.00222 17.2591 3.00222 16.9688C3.00222 16.6784 3.00222 16.345 3.00222 15.9688C3.00222 14.8013 3.02296 13.5095 3.06444 12.0932C3.10593 10.6769 3.27185 9.55245 3.56222 8.71986C4.10444 7.46949 5.00074 6.57319 6.25111 6.03097C7.12519 5.7406 8.24963 5.57468 9.62444 5.53319C11.0407 5.44727 12.3326 5.42653 13.5 5.47097C13.8763 5.47097 14.2096 5.47097 14.5 5.47097C14.7904 5.47097 15.1237 5.47097 15.5 5.47097C16.6674 5.47097 17.9593 5.49171 19.3756 5.53319C20.7919 5.57468 21.9163 5.7406 22.7489 6.03097C23.9993 6.57319 24.8956 7.46949 25.4378 8.71986C25.7281 9.55245 25.8941 10.6769 25.9356 12.0932C26.0215 13.5095 26.0437 14.8013 26.0022 15.9688C26.0022 16.345 26.0022 16.6784 26.0022 16.9688C26.0022 17.2591 26.0022 17.5925 26.0022 17.9688C26.0437 19.1362 26.0215 20.428 25.9356 21.8443C25.8941 23.2606 25.7281 24.385 25.4378 25.2176Z" fill="white"/>
</svg>
