<svg width="29" height="33" viewBox="0 0 29 33" fill="none" xmlns="http://www.w3.org/2000/svg">
<path d="M26.5 2.9707H2.5C1.9163 2.9707 1.43778 3.15885 1.06444 3.53515C0.688148 3.94996 0.5 4.42848 0.5 4.9707V28.9707C0.5 29.5129 0.688148 29.9914 1.06444 30.4063C1.43778 30.7826 1.9163 30.9707 2.5 30.9707H26.5C27.0837 30.9707 27.5622 30.7826 27.9356 30.4063C28.3119 29.9914 28.5 29.5129 28.5 28.9707V4.9707C28.5 4.42848 28.3119 3.94996 27.9356 3.53515C27.5622 3.15885 27.0837 2.9707 26.5 2.9707ZM9.00222 26.9707H8.93556H4.81111V13.5974H9.00222V26.9707ZM6.87333 11.784C6.20667 11.784 5.64519 11.5544 5.18889 11.0951C4.72963 10.6359 4.5 10.0729 4.5 9.40626C4.5 8.69811 4.72963 8.11589 5.18889 7.65959C5.64519 7.20033 6.20667 6.9707 6.87333 6.9707C7.58148 6.9707 8.14444 7.20033 8.56222 7.65959C9.02148 8.11589 9.27185 8.69811 9.31333 9.40626C9.27185 10.0729 9.02148 10.6359 8.56222 11.0951C8.14444 11.5544 7.58148 11.784 6.87333 11.784ZM24.5 26.9707H20.3756V20.4729C20.417 19.6374 20.3133 18.8448 20.0644 18.0951C19.8541 17.387 19.2289 16.9914 18.1889 16.9085C17.1459 16.95 16.4585 17.304 16.1267 17.9707C15.8333 18.6374 15.7074 19.4285 15.7489 20.344V26.9707H11.5622V13.5974H15.5622V15.4063H15.6244C15.8763 14.867 16.3356 14.3885 17.0022 13.9707C17.6689 13.5114 18.5222 13.2818 19.5622 13.2818C21.6037 13.3233 22.9578 13.9277 23.6244 15.0951C24.2911 16.304 24.583 17.8255 24.5 19.6596V26.9707Z" fill="white"/>
</svg>
