<svg width="29" height="33" viewBox="0 0 29 33" fill="none" xmlns="http://www.w3.org/2000/svg">
<path d="M14.5 9.78404C12.4585 9.82552 10.7711 10.5337 9.43778 11.9085C8.06296 13.2418 7.35482 14.9292 7.31333 16.9707C7.35482 19.0122 8.06296 20.6996 9.43778 22.0329C10.7711 23.4077 12.4585 24.1159 14.5 24.1574C16.5415 24.1159 18.2289 23.4077 19.5622 22.0329C20.937 20.6996 21.6452 19.0122 21.6867 16.9707C21.6452 14.9292 20.937 13.2418 19.5622 11.9085C18.2289 10.5337 16.5415 9.82552 14.5 9.78404ZM14.5 21.6596C13.1667 21.6181 12.063 21.1589 11.1889 20.2818C10.3119 19.4077 9.85259 18.304 9.81111 16.9707C9.85259 15.6374 10.3119 14.5337 11.1889 13.6596C12.063 12.7826 13.1667 12.3233 14.5 12.2818C15.8333 12.3233 16.937 12.7826 17.8111 13.6596C18.6881 14.5337 19.1474 15.6374 19.1889 16.9707C19.1474 18.304 18.6881 19.4077 17.8111 20.2818C16.937 21.1589 15.8333 21.6181 14.5 21.6596ZM23.6867 9.47293C23.5622 10.5129 23.0007 11.0744 22.0022 11.1574C20.9593 11.0744 20.3963 10.5129 20.3133 9.47293C20.3133 9.01367 20.4793 8.61663 20.8111 8.28181C21.1044 7.99144 21.5015 7.84626 22.0022 7.84626C22.4585 7.84626 22.8541 7.99144 23.1889 8.28181C23.4793 8.61663 23.6452 9.01367 23.6867 9.47293ZM28.4378 11.1574V11.2196C28.4378 8.92922 27.6674 6.9707 26.1267 5.34404C24.5 3.8033 22.5622 3.03293 20.3133 3.03293C19.4807 2.99144 18.2926 2.9707 16.7489 2.9707C15.2496 2.9707 13.7504 2.9707 12.2511 2.9707C10.7074 2.9707 9.54 2.99144 8.74889 3.03293C6.5 3.03293 4.54148 3.8033 2.87333 5.34404C1.33259 6.9707 0.582963 8.90848 0.624444 11.1574C0.541481 11.99 0.5 13.1781 0.5 14.7218C0.5 16.2211 0.5 17.7203 0.5 19.2196C0.5 20.7218 0.541481 21.8892 0.624444 22.7218C0.582963 25.0122 1.33259 26.9707 2.87333 28.5974C4.5 30.1381 6.45852 30.8877 8.74889 30.8463C9.54 30.8877 10.7074 30.9292 12.2511 30.9707C13.7504 30.9707 15.2496 30.9707 16.7489 30.9707C18.2926 30.9292 19.4807 30.8877 20.3133 30.8463C22.5622 30.8877 24.5 30.1381 26.1267 28.5974C27.6674 26.9707 28.4378 25.0122 28.4378 22.7218C28.4793 21.8892 28.5 20.7218 28.5 19.2196C28.5 17.7203 28.5 16.2211 28.5 14.7218C28.5 13.1781 28.4793 11.99 28.4378 11.1574ZM25.4378 25.2196C24.8956 26.47 23.9993 27.3663 22.7489 27.9085C21.9163 28.1989 20.7919 28.3648 19.3756 28.4063C17.9593 28.4507 16.6674 28.4729 15.5 28.4729C15.1237 28.4729 14.7904 28.4729 14.5 28.4729C14.2096 28.4729 13.8763 28.4729 13.5 28.4729C12.3326 28.4729 11.0407 28.4507 9.62444 28.4063C8.24963 28.3648 7.12519 28.1989 6.25111 27.9085C5.00074 27.3663 4.10444 26.47 3.56222 25.2196C3.27185 24.3455 3.10593 23.2211 3.06444 21.8463C3.02296 20.43 3.00222 19.1381 3.00222 17.9707C3.00222 17.5944 3.00222 17.2611 3.00222 16.9707C3.00222 16.6803 3.00222 16.347 3.00222 15.9707C3.00222 14.8033 3.02296 13.5114 3.06444 12.0951C3.10593 10.6789 3.27185 9.55441 3.56222 8.72181C4.10444 7.47144 5.00074 6.57515 6.25111 6.03293C7.12519 5.74256 8.24963 5.57663 9.62444 5.53515C11.0407 5.44922 12.3326 5.42848 13.5 5.47293C13.8763 5.47293 14.2096 5.47293 14.5 5.47293C14.7904 5.47293 15.1237 5.47293 15.5 5.47293C16.6674 5.47293 17.9593 5.49367 19.3756 5.53515C20.7919 5.57663 21.9163 5.74256 22.7489 6.03293C23.9993 6.57515 24.8956 7.47144 25.4378 8.72181C25.7281 9.55441 25.8941 10.6789 25.9356 12.0951C26.0215 13.5114 26.0437 14.8033 26.0022 15.9707C26.0022 16.347 26.0022 16.6803 26.0022 16.9707C26.0022 17.2611 26.0022 17.5944 26.0022 17.9707C26.0437 19.1381 26.0215 20.43 25.9356 21.8463C25.8941 23.2626 25.7281 24.387 25.4378 25.2196Z" fill="white"/>
</svg>
