<svg width="33" height="33" viewBox="0 0 33 33" fill="none" xmlns="http://www.w3.org/2000/svg">
<path d="M32.0022 16.9704C31.9578 14.0964 31.2482 11.4919 29.8733 9.1571C28.4985 6.82525 26.6452 4.97192 24.3133 3.5971C21.9785 2.22229 19.3741 1.51414 16.5 1.47266C13.6259 1.51414 11.0215 2.22229 8.68667 3.5971C6.35482 4.97192 4.50149 6.82525 3.12667 9.1571C1.75186 11.4919 1.04371 14.0964 1.00223 16.9704C1.08519 20.929 2.33408 24.3038 4.74889 27.0949C7.16667 29.886 10.2719 31.6149 14.0645 32.2815V21.4727H10.1267V16.9704H14.0645V13.5349C14.1059 11.6178 14.6467 10.1378 15.6867 9.09488C16.7296 8.05488 18.1459 7.53488 19.9356 7.53488C20.8126 7.53488 21.6052 7.57636 22.3133 7.65932C22.98 7.74229 23.3341 7.80451 23.3756 7.84599V11.6593H21.4378C20.4807 11.6593 19.8141 11.9082 19.4378 12.406C19.0615 12.8652 18.8941 13.4075 18.9356 14.0327V16.9704H23.2511L22.5622 21.4727H18.9356V32.2815C22.7282 31.6149 25.8333 29.886 28.2511 27.0949C30.6659 24.3038 31.9163 20.929 32.0022 16.9704Z" fill="white"/>
</svg>
