<svg width="9" height="9" viewBox="0 0 9 9" fill="none" xmlns="http://www.w3.org/2000/svg">
<path d="M8.32812 4.2998C8.31775 5.05018 8.13553 5.72203 7.78146 6.31536C7.42738 6.9198 6.94812 7.39906 6.34368 7.75314C5.75035 8.10721 5.0785 8.28943 4.32812 8.2998C3.5785 8.28943 2.90664 8.10721 2.31257 7.75314C1.70813 7.39906 1.22887 6.9198 0.874792 6.31536C0.520718 5.72203 0.338495 5.05018 0.328125 4.2998C0.338495 3.55018 0.520718 2.87832 0.874792 2.28425C1.22887 1.6798 1.70813 1.20055 2.31257 0.846471C2.90664 0.492397 3.5785 0.310175 4.32812 0.299805C5.0785 0.310175 5.75035 0.492397 6.34368 0.846471C6.94812 1.20055 7.42738 1.6798 7.78146 2.28425C8.13553 2.87832 8.31775 3.55018 8.32812 4.2998Z" fill="#1C1C1C"/>
</svg>
