<svg width="14" height="16" viewBox="0 0 14 16" fill="none" xmlns="http://www.w3.org/2000/svg">
<path d="M7 13C6.72889 13 6.48963 12.9059 6.28222 12.7178L0.282222 6.71778C0.0940741 6.51037 0 6.27111 0 6C0 5.72889 0.0940741 5.48963 0.282222 5.28222C0.48963 5.09407 0.728889 5 1 5C1.27111 5 1.51037 5.09407 1.71778 5.28222L7 10.5933L12.2822 5.28222C12.4896 5.09407 12.7289 5 13 5C13.2711 5 13.5104 5.09407 13.7178 5.28222C13.9059 5.48963 14 5.72889 14 6C14 6.27111 13.9059 6.51037 13.7178 6.71778L7.71778 12.7178C7.51037 12.9059 7.27111 13 7 13Z" fill="#F13544"/>
</svg>
