<svg width="16" height="16" viewBox="0 0 16 16" fill="none" xmlns="http://www.w3.org/2000/svg">
<path d="M16 1.15711L14 14.126C13.9378 14.4386 13.7711 14.6786 13.5 14.846C13.3341 14.929 13.1674 14.9704 13 14.9704C12.8756 14.9704 12.7504 14.9497 12.6244 14.9082L8.78222 13.3149L7.18667 15.6882C7.06222 15.8971 6.88519 16.0016 6.65556 16.0016C6.26 15.9601 6.04148 15.7416 6 15.346V12.346C6 12.1164 6.07259 11.9075 6.21778 11.7193L13 3.00156L3.81333 11.2527L0.624444 9.93933C0.24963 9.77193 0.0414815 9.4697 0 9.03267C0 8.61637 0.166667 8.30378 0.5 8.09489L14.5 0.126C14.8748 -0.0606667 15.2289 -0.0399259 15.5622 0.188222C15.8956 0.417852 16.0415 0.740815 16 1.15711Z" fill="#F13544"/>
</svg>
