<svg width="18" height="16" viewBox="0 0 18 16" fill="none" xmlns="http://www.w3.org/2000/svg">
<path d="M17.8894 2.56222C17.7842 2.20815 17.5442 2.02074 17.1694 2H14.0138C14.0138 1.60444 14.0138 1.26074 14.0138 0.968889C13.9931 0.697778 13.8886 0.468889 13.7005 0.282222C13.5138 0.0940741 13.2849 0 13.0138 0H5.01383C4.74272 0 4.51383 0.0940741 4.32716 0.282222C4.13901 0.468889 4.03457 0.697778 4.01383 0.968889C3.99309 1.19852 3.99309 1.46963 4.01383 1.78222C4.01383 1.84444 4.01383 1.91704 4.01383 2H0.858272C0.483457 2.02074 0.243457 2.20815 0.138272 2.56222C0.117531 2.62444 0.0760494 2.90593 0.0138272 3.40667C-0.0276543 3.90593 0.0241975 4.53111 0.169383 5.28222C0.316049 6.05259 0.649383 6.85407 1.16938 7.68667C2.35753 9.43778 4.31605 10.657 7.04494 11.3444C7.64938 11.5519 7.97235 11.9889 8.01383 12.6556C8.01383 13.0304 7.87827 13.343 7.60716 13.5933C7.35679 13.8644 7.0442 14 6.66938 14H6.51383C6.09753 14.0207 5.74346 14.1667 5.4516 14.4378C5.18049 14.7296 5.03457 15.0837 5.01383 15.5C5.05531 15.8126 5.21161 15.9793 5.48272 16H12.4516C12.7435 15.9793 12.8998 15.8126 12.9205 15.5C12.9205 15.0837 12.7746 14.7296 12.4827 14.4378C12.2116 14.1667 11.8575 14.0207 11.4205 14H11.2961C10.899 14 10.576 13.8644 10.3272 13.5933C10.0768 13.343 9.94124 13.0304 9.9205 12.6556C9.96198 11.9889 10.2953 11.5519 10.9205 11.3444C13.6494 10.657 15.5975 9.43778 16.7649 7.68667C17.3264 6.85407 17.6805 6.05259 17.8272 5.28222C17.9931 4.53111 18.0449 3.90593 17.9827 3.40667C17.9412 2.90593 17.9101 2.62444 17.8894 2.56222ZM2.42049 6.87556C2.0042 6.20889 1.74346 5.57333 1.63827 4.96889C1.53457 4.36444 1.49309 3.87481 1.51383 3.5H4.04494C4.10716 4.45852 4.2842 5.44815 4.57605 6.46889C4.84716 7.51037 5.2642 8.48963 5.82716 9.40667C4.30568 8.80222 3.17012 7.95852 2.42049 6.87556ZM15.6072 6.87556C14.8575 7.95852 13.722 8.80222 12.2005 9.40667C12.7635 8.48963 13.1805 7.51037 13.4516 6.46889C13.7435 5.42741 13.9205 4.43778 13.9827 3.5H16.5138C16.5346 3.87481 16.4931 4.36444 16.3894 4.96889C16.2842 5.57333 16.0235 6.20889 15.6072 6.87556Z" fill="#F13544"/>
</svg>
